<svg width="1163" height="1137" viewBox="0 0 1163 1137" fill="none" xmlns="http://www.w3.org/2000/svg">
<path d="M317.866 118.339C256.464 -16.7456 135.365 -2.75952 82.4911 21.1191C-15.7525 82.521 -6.201 183.153 10.8552 225.794C126.837 464.58 366.988 956.48 399.736 1013.79C440.671 1085.42 481.605 1126.36 604.41 1136.59C702.653 1144.78 774.972 1027.43 798.85 967.737C887.542 783.53 1069.02 405.907 1085.39 369.065C1105.86 323.014 1249.13 97.8725 1085.39 21.1191C954.402 -40.2836 877.309 46.7036 855.136 97.8725C795.439 224.088 672.976 484.706 660.695 517.454C645.345 558.389 609.527 578.856 573.709 573.74C545.054 569.646 520.835 534.51 512.307 517.454C473.077 440.701 379.268 253.424 317.866 118.339Z" fill="#F79A1F"/>
</svg>
